# xmcd
#
# Track frame offsets:
#	150
#	18572
#	34898
#	48510
#	62152
#	79770
#	94220
#	111820
#
# Disc length: 1694 seconds
#
# Revision: 0
# Processed by: cddbd v1.5.2PL0 Copyright (c) Steve Scherf et al.
# Submitted via: EasyCDDAExtractor 16.0.9.1
#
DISCID=66069c08
DTITLE=Los Terricolas - La Mejor... Coleccion
DYEAR=1900
DGENRE=Romantica En Español
TTITLE0=Hoy Te Confieso
TTITLE1=La Carta
TTITLE2=Ahi Se La Encargo
TTITLE3=Que Me Lleve El Diablo
TTITLE4=Viviras
TTITLE5=Alguien Como Tu
TTITLE6=Dos Cosas
TTITLE7=La Diferrencia
EXTD=
EXTT0=
EXTT1=
EXTT2=
EXTT3=
EXTT4=
EXTT5=
EXTT6=
EXTT7=
PLAYORDER=
